<svg xmlns:rdf="http://www.w3.org/1999/02/22-rdf-syntax-ns#" xmlns="http://www.w3.org/2000/svg" height="26" width="26" version="1.1" xmlns:cc="http://creativecommons.org/ns#" xmlns:dc="http://purl.org/dc/elements/1.1/">
 <metadata>
  <rdf:RDF>
   <cc:Work rdf:about="">
    <dc:format>image/svg+xml</dc:format>
    <dc:type rdf:resource="http://purl.org/dc/dcmitype/StillImage"/>
    <dc:title/>
   </cc:Work>
  </rdf:RDF>
 </metadata>
 <g stroke-linejoin="miter" stroke-dashoffset="0" transform="translate(-23,0)" stroke="#000" stroke-linecap="butt" stroke-dasharray="none" stroke-miterlimit="4" fill="#FFF">
  <path style="color:#000000;enable-background:accumulate;" stroke-width="1" d="m28.5,4.5,0,3,15,0,0-3-3,0,0,1-3,0,0-1-3,0,0,1-3,0,0-1z"/>
  <path style="color:#000000;enable-background:accumulate;" stroke-width="1" d="m29,7.5,1.5,3,0,6-1,2,6.5,0,6.5,0-1-2,0-6,1.5-3-7,0z"/>
  <rect height="3" width="15" y="18.5" x="28.5" stroke-width="1"/>
  <rect height="2" width="17" y="21.5" x="27.5" stroke-width="1"/>
  <path style="color:#000000;enable-background:accumulate;" stroke-width="0.5" d="m30,10.5,12,0"/>
  <path style="color:#000000;enable-background:accumulate;" stroke-width="0.50000000000000000" d="m30,16.5,12,0"/>
 </g>
</svg>
